<mxfile host="Electron" agent="Mozilla/5.0 (Windows NT 10.0; Win64; x64) AppleWebKit/537.36 (KHTML, like Gecko) draw.io/28.1.2 Chrome/138.0.7204.243 Electron/37.4.0 Safari/537.36" version="28.1.2">
  <diagram name="Page-1" id="6ZK7nloWfW8_H4K_YNuI">
    <mxGraphModel dx="1090" dy="661" grid="1" gridSize="10" guides="1" tooltips="1" connect="1" arrows="1" fold="1" page="1" pageScale="1" pageWidth="827" pageHeight="1169" math="0" shadow="0">
      <root>
        <mxCell id="0" />
        <mxCell id="1" parent="0" />
        <mxCell id="q3vXGhzTDpfgTk61LoxV-1" value="keyboard" style="swimlane;fontStyle=1;align=center;verticalAlign=middle;childLayout=stackLayout;horizontal=1;startSize=29;horizontalStack=0;resizeParent=1;resizeParentMax=0;resizeLast=0;collapsible=0;marginBottom=0;html=1;whiteSpace=wrap;" vertex="1" parent="1">
          <mxGeometry x="770" y="221" width="140" height="54" as="geometry" />
        </mxCell>
        <mxCell id="q3vXGhzTDpfgTk61LoxV-2" value="key" style="text;html=1;strokeColor=none;fillColor=none;align=left;verticalAlign=middle;spacingLeft=4;spacingRight=4;overflow=hidden;rotatable=0;points=[[0,0.5],[1,0.5]];portConstraint=eastwest;whiteSpace=wrap;" vertex="1" parent="q3vXGhzTDpfgTk61LoxV-1">
          <mxGeometry y="29" width="140" height="25" as="geometry" />
        </mxCell>
        <mxCell id="q3vXGhzTDpfgTk61LoxV-3" value="laptop" style="swimlane;fontStyle=1;align=center;verticalAlign=middle;childLayout=stackLayout;horizontal=1;startSize=29;horizontalStack=0;resizeParent=1;resizeParentMax=0;resizeLast=0;collapsible=0;marginBottom=0;html=1;whiteSpace=wrap;" vertex="1" parent="1">
          <mxGeometry x="320" y="241" width="140" height="54" as="geometry" />
        </mxCell>
        <mxCell id="q3vXGhzTDpfgTk61LoxV-5" value="purchase prise" style="text;html=1;strokeColor=none;fillColor=none;align=left;verticalAlign=middle;spacingLeft=4;spacingRight=4;overflow=hidden;rotatable=0;points=[[0,0.5],[1,0.5]];portConstraint=eastwest;whiteSpace=wrap;" vertex="1" parent="q3vXGhzTDpfgTk61LoxV-3">
          <mxGeometry y="29" width="140" height="25" as="geometry" />
        </mxCell>
        <mxCell id="q3vXGhzTDpfgTk61LoxV-6" value="onwer" style="swimlane;fontStyle=1;align=center;verticalAlign=middle;childLayout=stackLayout;horizontal=1;startSize=29;horizontalStack=0;resizeParent=1;resizeParentMax=0;resizeLast=0;collapsible=0;marginBottom=0;html=1;whiteSpace=wrap;" vertex="1" parent="1">
          <mxGeometry x="520" y="611" width="140" height="79" as="geometry" />
        </mxCell>
        <mxCell id="q3vXGhzTDpfgTk61LoxV-7" value="Id" style="text;html=1;strokeColor=none;fillColor=none;align=center;verticalAlign=middle;spacingLeft=4;spacingRight=4;overflow=hidden;rotatable=0;points=[[0,0.5],[1,0.5]];portConstraint=eastwest;whiteSpace=wrap;" vertex="1" parent="q3vXGhzTDpfgTk61LoxV-6">
          <mxGeometry y="29" width="140" height="25" as="geometry" />
        </mxCell>
        <mxCell id="q3vXGhzTDpfgTk61LoxV-8" value="first name" style="text;html=1;strokeColor=none;fillColor=none;align=left;verticalAlign=middle;spacingLeft=4;spacingRight=4;overflow=hidden;rotatable=0;points=[[0,0.5],[1,0.5]];portConstraint=eastwest;whiteSpace=wrap;" vertex="1" parent="q3vXGhzTDpfgTk61LoxV-6">
          <mxGeometry y="54" width="140" height="25" as="geometry" />
        </mxCell>
        <mxCell id="q3vXGhzTDpfgTk61LoxV-9" value="" style="endArrow=none;html=1;rounded=0;entryX=0.393;entryY=0.96;entryDx=0;entryDy=0;entryPerimeter=0;exitX=1;exitY=0;exitDx=0;exitDy=0;" edge="1" parent="1" source="q3vXGhzTDpfgTk61LoxV-6" target="q3vXGhzTDpfgTk61LoxV-5">
          <mxGeometry width="50" height="50" relative="1" as="geometry">
            <mxPoint x="610" y="461" as="sourcePoint" />
            <mxPoint x="660" y="411" as="targetPoint" />
          </mxGeometry>
        </mxCell>
        <mxCell id="q3vXGhzTDpfgTk61LoxV-26" value="0..N" style="edgeLabel;html=1;align=center;verticalAlign=middle;resizable=0;points=[];" vertex="1" connectable="0" parent="q3vXGhzTDpfgTk61LoxV-9">
          <mxGeometry x="0.8357" y="-4" relative="1" as="geometry">
            <mxPoint as="offset" />
          </mxGeometry>
        </mxCell>
        <mxCell id="q3vXGhzTDpfgTk61LoxV-27" value="0..1" style="edgeLabel;html=1;align=center;verticalAlign=middle;resizable=0;points=[];" vertex="1" connectable="0" parent="q3vXGhzTDpfgTk61LoxV-9">
          <mxGeometry x="-0.7502" y="-4" relative="1" as="geometry">
            <mxPoint as="offset" />
          </mxGeometry>
        </mxCell>
        <mxCell id="q3vXGhzTDpfgTk61LoxV-13" value="" style="endArrow=diamondThin;endFill=1;endSize=24;html=1;rounded=0;entryX=0.986;entryY=0.08;entryDx=0;entryDy=0;entryPerimeter=0;exitX=0;exitY=0.5;exitDx=0;exitDy=0;" edge="1" parent="1">
          <mxGeometry width="160" relative="1" as="geometry">
            <mxPoint x="770" y="262.5" as="sourcePoint" />
            <mxPoint x="458.03999999999996" y="272.0000000000001" as="targetPoint" />
          </mxGeometry>
        </mxCell>
        <mxCell id="q3vXGhzTDpfgTk61LoxV-28" value="1..N" style="edgeLabel;html=1;align=center;verticalAlign=middle;resizable=0;points=[];" vertex="1" connectable="0" parent="q3vXGhzTDpfgTk61LoxV-13">
          <mxGeometry x="-0.8486" y="-4" relative="1" as="geometry">
            <mxPoint as="offset" />
          </mxGeometry>
        </mxCell>
        <mxCell id="q3vXGhzTDpfgTk61LoxV-29" value="1..1" style="edgeLabel;html=1;align=center;verticalAlign=middle;resizable=0;points=[];" vertex="1" connectable="0" parent="q3vXGhzTDpfgTk61LoxV-13">
          <mxGeometry x="0.7154" y="2" relative="1" as="geometry">
            <mxPoint as="offset" />
          </mxGeometry>
        </mxCell>
        <mxCell id="q3vXGhzTDpfgTk61LoxV-22" value="keys" style="swimlane;fontStyle=1;align=center;verticalAlign=middle;childLayout=stackLayout;horizontal=1;startSize=29;horizontalStack=0;resizeParent=1;resizeParentMax=0;resizeLast=0;collapsible=0;marginBottom=0;html=1;whiteSpace=wrap;" vertex="1" parent="1">
          <mxGeometry x="1000" y="390" width="140" height="54" as="geometry" />
        </mxCell>
        <mxCell id="q3vXGhzTDpfgTk61LoxV-25" value="" style="endArrow=diamond;html=1;rounded=0;endFill=1;endSize=24;exitX=0.438;exitY=0.005;exitDx=0;exitDy=0;exitPerimeter=0;" edge="1" parent="1" source="q3vXGhzTDpfgTk61LoxV-22">
          <mxGeometry width="50" height="50" relative="1" as="geometry">
            <mxPoint x="1050" y="380" as="sourcePoint" />
            <mxPoint x="910" y="260" as="targetPoint" />
          </mxGeometry>
        </mxCell>
        <mxCell id="q3vXGhzTDpfgTk61LoxV-30" value="1..N" style="edgeLabel;html=1;align=center;verticalAlign=middle;resizable=0;points=[];" vertex="1" connectable="0" parent="q3vXGhzTDpfgTk61LoxV-25">
          <mxGeometry x="-0.7237" y="1" relative="1" as="geometry">
            <mxPoint as="offset" />
          </mxGeometry>
        </mxCell>
        <mxCell id="q3vXGhzTDpfgTk61LoxV-34" value="Text" style="edgeLabel;html=1;align=center;verticalAlign=middle;resizable=0;points=[];" vertex="1" connectable="0" parent="q3vXGhzTDpfgTk61LoxV-25">
          <mxGeometry x="0.5719" relative="1" as="geometry">
            <mxPoint x="1" as="offset" />
          </mxGeometry>
        </mxCell>
      </root>
    </mxGraphModel>
  </diagram>
</mxfile>
